<mxfile host="app.diagrams.net" modified="2024-04-11T15:29:02.483Z" agent="Mozilla/5.0 (Windows NT 10.0; Win64; x64) AppleWebKit/537.36 (KHTML, like Gecko) Chrome/121.0.0.0 Safari/537.36 OPR/107.0.0.0" etag="XtZHvHiAQlDSoKcq17ft" version="24.2.3" type="device" pages="3">
  <diagram id="UD4oLA14Tn1y4zUg4rgK" name="LVL1">
    <mxGraphModel dx="753" dy="471" grid="1" gridSize="10" guides="1" tooltips="1" connect="1" arrows="1" fold="1" page="1" pageScale="1" pageWidth="827" pageHeight="1169" math="0" shadow="0">
      <root>
        <mxCell id="0" />
        <mxCell id="1" parent="0" />
        <mxCell id="eUCeiFurNi9mVy3ALTpU-2" value="" style="html=1;dropTarget=0;whiteSpace=wrap;fillColor=#C9C9C9;strokeColor=#FFFFFF;" parent="1" vertex="1">
          <mxGeometry x="254.13000000000002" y="287" width="236.74" height="180" as="geometry" />
        </mxCell>
        <mxCell id="eUCeiFurNi9mVy3ALTpU-3" value="" style="shape=module;jettyWidth=8;jettyHeight=4;fillColor=none;strokeColor=#172C51;" parent="eUCeiFurNi9mVy3ALTpU-2" vertex="1">
          <mxGeometry x="1" width="20" height="20" relative="1" as="geometry">
            <mxPoint x="-27" y="7" as="offset" />
          </mxGeometry>
        </mxCell>
        <mxCell id="eUCeiFurNi9mVy3ALTpU-27" value="" style="endArrow=none;html=1;rounded=0;exitX=0.5;exitY=0;exitDx=0;exitDy=0;strokeColor=#172C51;" parent="1" source="eUCeiFurNi9mVy3ALTpU-29" edge="1">
          <mxGeometry width="50" height="50" relative="1" as="geometry">
            <mxPoint x="284.8299999999999" y="390" as="sourcePoint" />
            <mxPoint x="285" y="266" as="targetPoint" />
          </mxGeometry>
        </mxCell>
        <mxCell id="eUCeiFurNi9mVy3ALTpU-28" value="" style="endArrow=none;html=1;rounded=0;exitX=0.5;exitY=0;exitDx=0;exitDy=0;strokeColor=#172C51;" parent="1" source="eUCeiFurNi9mVy3ALTpU-30" edge="1">
          <mxGeometry width="50" height="50" relative="1" as="geometry">
            <mxPoint x="313.74" y="390" as="sourcePoint" />
            <mxPoint x="314" y="266" as="targetPoint" />
          </mxGeometry>
        </mxCell>
        <mxCell id="eUCeiFurNi9mVy3ALTpU-29" value="" style="rounded=0;whiteSpace=wrap;html=1;strokeColor=#172C51;fontColor=#172C51;" parent="1" vertex="1">
          <mxGeometry x="277.83000000000004" y="283" width="14" height="10" as="geometry" />
        </mxCell>
        <mxCell id="eUCeiFurNi9mVy3ALTpU-30" value="" style="rounded=0;whiteSpace=wrap;html=1;strokeColor=#172C51;fontColor=#172C51;" parent="1" vertex="1">
          <mxGeometry x="307" y="283" width="14" height="10" as="geometry" />
        </mxCell>
        <mxCell id="eUCeiFurNi9mVy3ALTpU-31" value="" style="shape=requiredInterface;html=1;verticalLabelPosition=bottom;sketch=0;rotation=90;strokeColor=#172C51;fontColor=#172C51;" parent="1" vertex="1">
          <mxGeometry x="279.83" y="251" width="10" height="20" as="geometry" />
        </mxCell>
        <mxCell id="eUCeiFurNi9mVy3ALTpU-32" value="" style="shape=requiredInterface;html=1;verticalLabelPosition=bottom;sketch=0;rotation=90;strokeColor=#172C51;fontColor=#172C51;" parent="1" vertex="1">
          <mxGeometry x="309" y="251" width="10" height="20" as="geometry" />
        </mxCell>
        <mxCell id="eUCeiFurNi9mVy3ALTpU-33" value="CleanWatts" style="text;html=1;align=center;verticalAlign=middle;whiteSpace=wrap;rounded=0;fontColor=#172C51;strokeColor=none;" parent="1" vertex="1">
          <mxGeometry x="216.82999999999998" y="257" width="60" height="30" as="geometry" />
        </mxCell>
        <mxCell id="eUCeiFurNi9mVy3ALTpU-34" value="I-Charging" style="text;html=1;align=center;verticalAlign=middle;whiteSpace=wrap;rounded=0;fontColor=#172C51;strokeColor=none;" parent="1" vertex="1">
          <mxGeometry x="322.54999999999995" y="257" width="60" height="30" as="geometry" />
        </mxCell>
        <mxCell id="eUCeiFurNi9mVy3ALTpU-35" value="Generic" style="text;html=1;align=center;verticalAlign=middle;whiteSpace=wrap;rounded=0;fontColor=#172C51;strokeColor=none;" parent="1" vertex="1">
          <mxGeometry x="447.99999999999994" y="257" width="60" height="30" as="geometry" />
        </mxCell>
        <mxCell id="eUCeiFurNi9mVy3ALTpU-4" value="&lt;font&gt;«Component»&lt;br&gt;&lt;b&gt;Decision System&lt;/b&gt;&lt;/font&gt;" style="text;html=1;align=center;verticalAlign=middle;whiteSpace=wrap;rounded=0;fontColor=#172C51;" parent="1" vertex="1">
          <mxGeometry x="291.8333333333333" y="295" width="161.33333333333331" height="44.99999999999999" as="geometry" />
        </mxCell>
        <mxCell id="eUCeiFurNi9mVy3ALTpU-20" value="" style="endArrow=none;html=1;rounded=0;exitX=0.5;exitY=0;exitDx=0;exitDy=0;strokeColor=#172C51;" parent="1" source="eUCeiFurNi9mVy3ALTpU-21" edge="1">
          <mxGeometry width="50" height="50" relative="1" as="geometry">
            <mxPoint x="444.91" y="390" as="sourcePoint" />
            <mxPoint x="445.17" y="266" as="targetPoint" />
          </mxGeometry>
        </mxCell>
        <mxCell id="eUCeiFurNi9mVy3ALTpU-21" value="" style="rounded=0;whiteSpace=wrap;html=1;strokeColor=#172C51;fontColor=#172C51;" parent="1" vertex="1">
          <mxGeometry x="438.17" y="283" width="14" height="10" as="geometry" />
        </mxCell>
        <mxCell id="eUCeiFurNi9mVy3ALTpU-22" value="" style="shape=requiredInterface;html=1;verticalLabelPosition=bottom;sketch=0;rotation=90;fontColor=#172C51;strokeColor=#172C51;" parent="1" vertex="1">
          <mxGeometry x="440.17" y="251" width="10" height="20" as="geometry" />
        </mxCell>
      </root>
    </mxGraphModel>
  </diagram>
  <diagram name="LVL2" id="FMF1p5v2ZRFKDlLuyFtW">
    <mxGraphModel dx="377" dy="236" grid="1" gridSize="10" guides="1" tooltips="1" connect="1" arrows="1" fold="1" page="1" pageScale="1" pageWidth="827" pageHeight="1169" math="0" shadow="0">
      <root>
        <mxCell id="0" />
        <mxCell id="1" parent="0" />
        <mxCell id="atp4VXEtVLjCo3kQ9Hvp-4" value="" style="group" parent="1" vertex="1" connectable="0">
          <mxGeometry x="70" y="280" width="608.0490476190477" height="460" as="geometry" />
        </mxCell>
        <mxCell id="atp4VXEtVLjCo3kQ9Hvp-1" value="" style="html=1;dropTarget=0;whiteSpace=wrap;fillColor=#C9C9C9;strokeColor=#FFFFFF;" parent="atp4VXEtVLjCo3kQ9Hvp-4" vertex="1">
          <mxGeometry x="3.0490476190476556" width="605" height="460" as="geometry" />
        </mxCell>
        <mxCell id="atp4VXEtVLjCo3kQ9Hvp-2" value="" style="shape=module;jettyWidth=8;jettyHeight=4;fillColor=none;strokeColor=#172C51;" parent="atp4VXEtVLjCo3kQ9Hvp-1" vertex="1">
          <mxGeometry x="1" width="20" height="20" relative="1" as="geometry">
            <mxPoint x="-27" y="7" as="offset" />
          </mxGeometry>
        </mxCell>
        <mxCell id="atp4VXEtVLjCo3kQ9Hvp-3" value="&lt;font&gt;«Component»&lt;br&gt;&lt;b&gt;Decision System&lt;/b&gt;&lt;/font&gt;" style="text;html=1;align=center;verticalAlign=middle;whiteSpace=wrap;rounded=0;fontColor=#172C51;" parent="atp4VXEtVLjCo3kQ9Hvp-4" vertex="1">
          <mxGeometry x="221.83333333333331" y="15" width="161.33333333333331" height="44.99999999999999" as="geometry" />
        </mxCell>
        <mxCell id="atp4VXEtVLjCo3kQ9Hvp-5" value="&lt;font color=&quot;#172c51&quot;&gt;«Component»&lt;br&gt;&lt;b&gt;Translator System&lt;/b&gt;&lt;/font&gt;" style="html=1;dropTarget=0;whiteSpace=wrap;fillColor=#5B9BD5;strokeColor=#172C51;" parent="atp4VXEtVLjCo3kQ9Hvp-4" vertex="1">
          <mxGeometry x="201.83476190476193" y="109.99903225806452" width="207.42857142857142" height="113.2258064516129" as="geometry" />
        </mxCell>
        <mxCell id="atp4VXEtVLjCo3kQ9Hvp-6" value="" style="shape=module;jettyWidth=8;jettyHeight=4;fillColor=none;strokeColor=#172C51;" parent="atp4VXEtVLjCo3kQ9Hvp-5" vertex="1">
          <mxGeometry x="1" width="20" height="20" relative="1" as="geometry">
            <mxPoint x="-27" y="7" as="offset" />
          </mxGeometry>
        </mxCell>
        <mxCell id="atp4VXEtVLjCo3kQ9Hvp-11" value="" style="group;strokeColor=none;" parent="atp4VXEtVLjCo3kQ9Hvp-4" vertex="1" connectable="0">
          <mxGeometry x="43.049523809523805" y="304.49967741935484" width="518.905238095238" height="113.23032258064518" as="geometry" />
        </mxCell>
        <mxCell id="atp4VXEtVLjCo3kQ9Hvp-9" value="&lt;font color=&quot;#172c51&quot;&gt;«Component»&lt;br&gt;&lt;b&gt;Generic Residential&amp;nbsp;&lt;/b&gt;&lt;/font&gt;&lt;div&gt;&lt;b&gt;&lt;font color=&quot;#172c51&quot;&gt;Decision System&lt;/font&gt;&lt;/b&gt;&lt;/div&gt;" style="html=1;dropTarget=0;whiteSpace=wrap;fillColor=#5B9BD5;strokeColor=#172C51;" parent="atp4VXEtVLjCo3kQ9Hvp-11" vertex="1">
          <mxGeometry x="311.4766666666665" width="207.42857142857142" height="113.2258064516129" as="geometry" />
        </mxCell>
        <mxCell id="atp4VXEtVLjCo3kQ9Hvp-10" value="" style="shape=module;jettyWidth=8;jettyHeight=4;fillColor=none;strokeColor=#172C51;" parent="atp4VXEtVLjCo3kQ9Hvp-9" vertex="1">
          <mxGeometry x="1" width="20" height="20" relative="1" as="geometry">
            <mxPoint x="-27" y="7" as="offset" />
          </mxGeometry>
        </mxCell>
        <mxCell id="atp4VXEtVLjCo3kQ9Hvp-7" value="&lt;font color=&quot;#172c51&quot;&gt;«Component»&lt;br&gt;&lt;b&gt;Training System&lt;/b&gt;&lt;/font&gt;" style="html=1;dropTarget=0;whiteSpace=wrap;fillColor=#5B9BD5;strokeColor=#172C51;" parent="atp4VXEtVLjCo3kQ9Hvp-11" vertex="1">
          <mxGeometry y="0.004516129032253957" width="207.42857142857142" height="113.2258064516129" as="geometry" />
        </mxCell>
        <mxCell id="atp4VXEtVLjCo3kQ9Hvp-8" value="" style="shape=module;jettyWidth=8;jettyHeight=4;fillColor=none;strokeColor=#172C51;" parent="atp4VXEtVLjCo3kQ9Hvp-7" vertex="1">
          <mxGeometry x="1" width="20" height="20" relative="1" as="geometry">
            <mxPoint x="-27" y="7" as="offset" />
          </mxGeometry>
        </mxCell>
        <mxCell id="atp4VXEtVLjCo3kQ9Hvp-19" value="" style="rounded=0;whiteSpace=wrap;html=1;strokeColor=#172C51;" parent="atp4VXEtVLjCo3kQ9Hvp-11" vertex="1">
          <mxGeometry x="144.9504761904762" y="-4.499677419354839" width="14" height="10" as="geometry" />
        </mxCell>
        <mxCell id="atp4VXEtVLjCo3kQ9Hvp-14" value="" style="ellipse;whiteSpace=wrap;html=1;aspect=fixed;strokeColor=#172C51;" parent="atp4VXEtVLjCo3kQ9Hvp-4" vertex="1">
          <mxGeometry x="295.55" y="250" width="20" height="20" as="geometry" />
        </mxCell>
        <mxCell id="atp4VXEtVLjCo3kQ9Hvp-18" value="" style="rounded=0;whiteSpace=wrap;html=1;strokeColor=#172C51;" parent="atp4VXEtVLjCo3kQ9Hvp-4" vertex="1">
          <mxGeometry x="401.17" y="299" width="14" height="10" as="geometry" />
        </mxCell>
        <mxCell id="atp4VXEtVLjCo3kQ9Hvp-20" value="" style="shape=requiredInterface;html=1;verticalLabelPosition=bottom;sketch=0;rotation=70;direction=south;strokeColor=#172C51;" parent="atp4VXEtVLjCo3kQ9Hvp-4" vertex="1">
          <mxGeometry x="288.21000000000004" y="254.60000000000002" width="24.54" height="15" as="geometry" />
        </mxCell>
        <mxCell id="atp4VXEtVLjCo3kQ9Hvp-21" style="rounded=0;orthogonalLoop=1;jettySize=auto;html=1;entryX=1;entryY=0.5;entryDx=0;entryDy=0;entryPerimeter=0;endArrow=none;endFill=0;exitX=0.75;exitY=0;exitDx=0;exitDy=0;strokeColor=#172C51;" parent="atp4VXEtVLjCo3kQ9Hvp-4" source="atp4VXEtVLjCo3kQ9Hvp-19" target="atp4VXEtVLjCo3kQ9Hvp-20" edge="1">
          <mxGeometry relative="1" as="geometry" />
        </mxCell>
        <mxCell id="atp4VXEtVLjCo3kQ9Hvp-25" value="" style="rounded=0;whiteSpace=wrap;html=1;strokeColor=#172C51;" parent="atp4VXEtVLjCo3kQ9Hvp-4" vertex="1">
          <mxGeometry x="207.83000000000004" y="104" width="14" height="10" as="geometry" />
        </mxCell>
        <mxCell id="atp4VXEtVLjCo3kQ9Hvp-24" value="" style="rounded=0;whiteSpace=wrap;html=1;strokeColor=#172C51;" parent="atp4VXEtVLjCo3kQ9Hvp-4" vertex="1">
          <mxGeometry x="237" y="104" width="14" height="10" as="geometry" />
        </mxCell>
        <mxCell id="atp4VXEtVLjCo3kQ9Hvp-38" value="" style="rounded=0;whiteSpace=wrap;html=1;strokeColor=#172C51;" parent="atp4VXEtVLjCo3kQ9Hvp-4" vertex="1">
          <mxGeometry x="369.17" y="104" width="14" height="10" as="geometry" />
        </mxCell>
        <mxCell id="atp4VXEtVLjCo3kQ9Hvp-39" value="" style="endArrow=none;html=1;rounded=0;exitX=0.5;exitY=0;exitDx=0;exitDy=0;strokeColor=#172C51;" parent="atp4VXEtVLjCo3kQ9Hvp-4" edge="1">
          <mxGeometry width="50" height="50" relative="1" as="geometry">
            <mxPoint x="375.91" y="104" as="sourcePoint" />
            <mxPoint x="376.17" y="-20" as="targetPoint" />
          </mxGeometry>
        </mxCell>
        <mxCell id="atp4VXEtVLjCo3kQ9Hvp-40" value="" style="rounded=0;whiteSpace=wrap;html=1;strokeColor=#172C51;fontColor=#172C51;" parent="atp4VXEtVLjCo3kQ9Hvp-4" vertex="1">
          <mxGeometry x="369.17" y="-3" width="14" height="10" as="geometry" />
        </mxCell>
        <mxCell id="atp4VXEtVLjCo3kQ9Hvp-41" value="" style="shape=requiredInterface;html=1;verticalLabelPosition=bottom;sketch=0;rotation=90;fontColor=#172C51;" parent="atp4VXEtVLjCo3kQ9Hvp-4" vertex="1">
          <mxGeometry x="371.17" y="-35" width="10" height="20" as="geometry" />
        </mxCell>
        <mxCell id="atp4VXEtVLjCo3kQ9Hvp-17" style="edgeStyle=orthogonalEdgeStyle;rounded=0;orthogonalLoop=1;jettySize=auto;html=1;entryX=0.5;entryY=0;entryDx=0;entryDy=0;endArrow=none;endFill=0;strokeColor=#172C51;" parent="1" source="atp4VXEtVLjCo3kQ9Hvp-16" target="atp4VXEtVLjCo3kQ9Hvp-14" edge="1">
          <mxGeometry relative="1" as="geometry" />
        </mxCell>
        <mxCell id="atp4VXEtVLjCo3kQ9Hvp-16" value="" style="rounded=0;whiteSpace=wrap;html=1;strokeColor=#172C51;" parent="1" vertex="1">
          <mxGeometry x="368.55" y="498" width="14" height="10" as="geometry" />
        </mxCell>
        <mxCell id="atp4VXEtVLjCo3kQ9Hvp-22" value="" style="shape=requiredInterface;html=1;verticalLabelPosition=bottom;sketch=0;rotation=-80;direction=south;strokeColor=#172C51;" parent="1" vertex="1">
          <mxGeometry x="368.21000000000004" y="533.6" width="24.54" height="15" as="geometry" />
        </mxCell>
        <mxCell id="atp4VXEtVLjCo3kQ9Hvp-23" style="rounded=0;orthogonalLoop=1;jettySize=auto;html=1;exitX=0.5;exitY=0;exitDx=0;exitDy=0;entryX=1;entryY=0.5;entryDx=0;entryDy=0;entryPerimeter=0;endArrow=none;endFill=0;fontColor=#172C51;strokeColor=#172C51;" parent="1" source="atp4VXEtVLjCo3kQ9Hvp-18" target="atp4VXEtVLjCo3kQ9Hvp-22" edge="1">
          <mxGeometry relative="1" as="geometry" />
        </mxCell>
        <mxCell id="atp4VXEtVLjCo3kQ9Hvp-30" value="" style="endArrow=none;html=1;rounded=0;exitX=0.5;exitY=0;exitDx=0;exitDy=0;strokeColor=#172C51;" parent="1" source="atp4VXEtVLjCo3kQ9Hvp-25" edge="1">
          <mxGeometry width="50" height="50" relative="1" as="geometry">
            <mxPoint x="300" y="350" as="sourcePoint" />
            <mxPoint x="285" y="260" as="targetPoint" />
          </mxGeometry>
        </mxCell>
        <mxCell id="atp4VXEtVLjCo3kQ9Hvp-31" value="" style="endArrow=none;html=1;rounded=0;exitX=0.5;exitY=0;exitDx=0;exitDy=0;strokeColor=#172C51;" parent="1" edge="1">
          <mxGeometry width="50" height="50" relative="1" as="geometry">
            <mxPoint x="313.74" y="384" as="sourcePoint" />
            <mxPoint x="314" y="260" as="targetPoint" />
          </mxGeometry>
        </mxCell>
        <mxCell id="atp4VXEtVLjCo3kQ9Hvp-26" value="" style="rounded=0;whiteSpace=wrap;html=1;strokeColor=#172C51;fontColor=#172C51;" parent="1" vertex="1">
          <mxGeometry x="277.83000000000004" y="277" width="14" height="10" as="geometry" />
        </mxCell>
        <mxCell id="atp4VXEtVLjCo3kQ9Hvp-27" value="" style="rounded=0;whiteSpace=wrap;html=1;strokeColor=#172C51;fontColor=#172C51;" parent="1" vertex="1">
          <mxGeometry x="307" y="277" width="14" height="10" as="geometry" />
        </mxCell>
        <mxCell id="atp4VXEtVLjCo3kQ9Hvp-35" value="" style="shape=requiredInterface;html=1;verticalLabelPosition=bottom;sketch=0;rotation=90;strokeColor=#172C51;fontColor=#172C51;" parent="1" vertex="1">
          <mxGeometry x="279.83" y="245" width="10" height="20" as="geometry" />
        </mxCell>
        <mxCell id="atp4VXEtVLjCo3kQ9Hvp-37" value="" style="shape=requiredInterface;html=1;verticalLabelPosition=bottom;sketch=0;rotation=90;strokeColor=#172C51;fontColor=#172C51;" parent="1" vertex="1">
          <mxGeometry x="309" y="245" width="10" height="20" as="geometry" />
        </mxCell>
        <mxCell id="atp4VXEtVLjCo3kQ9Hvp-42" value="CleanWatts" style="text;html=1;align=center;verticalAlign=middle;whiteSpace=wrap;rounded=0;fontColor=#172C51;" parent="1" vertex="1">
          <mxGeometry x="216.82999999999998" y="251" width="60" height="30" as="geometry" />
        </mxCell>
        <mxCell id="atp4VXEtVLjCo3kQ9Hvp-43" value="I-Charging" style="text;html=1;align=center;verticalAlign=middle;whiteSpace=wrap;rounded=0;fontColor=#172C51;" parent="1" vertex="1">
          <mxGeometry x="322.54999999999995" y="251" width="60" height="30" as="geometry" />
        </mxCell>
        <mxCell id="atp4VXEtVLjCo3kQ9Hvp-44" value="Generic" style="text;html=1;align=center;verticalAlign=middle;whiteSpace=wrap;rounded=0;fontColor=#172C51;" parent="1" vertex="1">
          <mxGeometry x="448.99999999999994" y="251" width="60" height="30" as="geometry" />
        </mxCell>
      </root>
    </mxGraphModel>
  </diagram>
  <diagram id="b5bSSJfoo9CJwXizILPx" name="LVL3">
    <mxGraphModel dx="1673" dy="1047" grid="1" gridSize="10" guides="1" tooltips="1" connect="1" arrows="1" fold="1" page="1" pageScale="1" pageWidth="827" pageHeight="1169" math="0" shadow="0">
      <root>
        <mxCell id="0" />
        <mxCell id="1" parent="0" />
        <mxCell id="x8041O_ZoknDPP2LVo7z-1" value="" style="group" parent="1" vertex="1" connectable="0">
          <mxGeometry x="350" y="170" width="1580" height="760" as="geometry" />
        </mxCell>
        <mxCell id="x8041O_ZoknDPP2LVo7z-2" value="" style="html=1;dropTarget=0;whiteSpace=wrap;fillColor=#C9C9C9;strokeColor=#FFFFFF;" parent="x8041O_ZoknDPP2LVo7z-1" vertex="1">
          <mxGeometry x="30" width="1470" height="760" as="geometry" />
        </mxCell>
        <mxCell id="x8041O_ZoknDPP2LVo7z-3" value="" style="shape=module;jettyWidth=8;jettyHeight=4;fillColor=none;strokeColor=#172C51;" parent="x8041O_ZoknDPP2LVo7z-2" vertex="1">
          <mxGeometry x="1" width="20" height="20" relative="1" as="geometry">
            <mxPoint x="-27" y="7" as="offset" />
          </mxGeometry>
        </mxCell>
        <mxCell id="szYbMflZ5qyDHRdNNVK9-20" value="" style="group;strokeColor=none;" parent="x8041O_ZoknDPP2LVo7z-1" vertex="1" connectable="0">
          <mxGeometry x="80" y="220" width="605.18" height="260" as="geometry" />
        </mxCell>
        <mxCell id="szYbMflZ5qyDHRdNNVK9-11" style="edgeStyle=orthogonalEdgeStyle;rounded=0;orthogonalLoop=1;jettySize=auto;html=1;endArrow=none;endFill=0;strokeColor=#172C51;" parent="szYbMflZ5qyDHRdNNVK9-20" source="szYbMflZ5qyDHRdNNVK9-3" target="szYbMflZ5qyDHRdNNVK9-5" edge="1">
          <mxGeometry relative="1" as="geometry" />
        </mxCell>
        <mxCell id="szYbMflZ5qyDHRdNNVK9-3" value="&lt;font color=&quot;#172c51&quot;&gt;«Component»&lt;br&gt;&lt;b&gt;I-Charging Receiver&lt;/b&gt;&lt;/font&gt;" style="html=1;dropTarget=0;whiteSpace=wrap;fillColor=#5B9BD5;strokeColor=#172C51;" parent="szYbMflZ5qyDHRdNNVK9-20" vertex="1">
          <mxGeometry x="217.63342891278373" width="174.97438470728792" height="95.51020408163264" as="geometry" />
        </mxCell>
        <mxCell id="szYbMflZ5qyDHRdNNVK9-4" value="" style="shape=module;jettyWidth=8;jettyHeight=4;fillColor=none;strokeColor=#172C51;" parent="szYbMflZ5qyDHRdNNVK9-3" vertex="1">
          <mxGeometry x="1" width="20" height="20" relative="1" as="geometry">
            <mxPoint x="-27" y="7" as="offset" />
          </mxGeometry>
        </mxCell>
        <mxCell id="szYbMflZ5qyDHRdNNVK9-9" style="edgeStyle=orthogonalEdgeStyle;rounded=0;orthogonalLoop=1;jettySize=auto;html=1;entryX=0.5;entryY=0;entryDx=0;entryDy=0;endArrow=none;endFill=0;strokeColor=#172C51;" parent="szYbMflZ5qyDHRdNNVK9-20" source="szYbMflZ5qyDHRdNNVK9-1" target="szYbMflZ5qyDHRdNNVK9-7" edge="1">
          <mxGeometry relative="1" as="geometry" />
        </mxCell>
        <mxCell id="szYbMflZ5qyDHRdNNVK9-1" value="&lt;font color=&quot;#172c51&quot;&gt;«Component»&lt;br&gt;&lt;b&gt;CleanWatts Receiver&lt;/b&gt;&lt;/font&gt;" style="html=1;dropTarget=0;whiteSpace=wrap;fillColor=#5B9BD5;strokeColor=#172C51;" parent="szYbMflZ5qyDHRdNNVK9-20" vertex="1">
          <mxGeometry width="174.97438470728792" height="95.51020408163264" as="geometry" />
        </mxCell>
        <mxCell id="szYbMflZ5qyDHRdNNVK9-2" value="" style="shape=module;jettyWidth=8;jettyHeight=4;fillColor=none;strokeColor=#172C51;" parent="szYbMflZ5qyDHRdNNVK9-1" vertex="1">
          <mxGeometry x="1" width="20" height="20" relative="1" as="geometry">
            <mxPoint x="-27" y="7" as="offset" />
          </mxGeometry>
        </mxCell>
        <mxCell id="szYbMflZ5qyDHRdNNVK9-5" value="&lt;font color=&quot;#172c51&quot;&gt;«Component»&lt;br&gt;&lt;b&gt;I-Charging Translator&lt;/b&gt;&lt;/font&gt;" style="html=1;dropTarget=0;whiteSpace=wrap;fillColor=#5B9BD5;strokeColor=#172C51;" parent="szYbMflZ5qyDHRdNNVK9-20" vertex="1">
          <mxGeometry x="217.63342891278373" y="164.48979591836732" width="174.97438470728792" height="95.51020408163264" as="geometry" />
        </mxCell>
        <mxCell id="szYbMflZ5qyDHRdNNVK9-6" value="" style="shape=module;jettyWidth=8;jettyHeight=4;fillColor=none;strokeColor=#172C51;" parent="szYbMflZ5qyDHRdNNVK9-5" vertex="1">
          <mxGeometry x="1" width="20" height="20" relative="1" as="geometry">
            <mxPoint x="-27" y="7" as="offset" />
          </mxGeometry>
        </mxCell>
        <mxCell id="szYbMflZ5qyDHRdNNVK9-7" value="&lt;font color=&quot;#172c51&quot;&gt;«Component»&lt;br&gt;&lt;b&gt;CleanWatts Translator&lt;/b&gt;&lt;/font&gt;" style="html=1;dropTarget=0;whiteSpace=wrap;fillColor=#5B9BD5;strokeColor=#172C51;" parent="szYbMflZ5qyDHRdNNVK9-20" vertex="1">
          <mxGeometry y="164.48979591836732" width="174.97438470728792" height="95.51020408163264" as="geometry" />
        </mxCell>
        <mxCell id="szYbMflZ5qyDHRdNNVK9-8" value="" style="shape=module;jettyWidth=8;jettyHeight=4;fillColor=none;strokeColor=#172C51;" parent="szYbMflZ5qyDHRdNNVK9-7" vertex="1">
          <mxGeometry x="1" width="20" height="20" relative="1" as="geometry">
            <mxPoint x="-27" y="7" as="offset" />
          </mxGeometry>
        </mxCell>
        <mxCell id="szYbMflZ5qyDHRdNNVK9-15" style="edgeStyle=orthogonalEdgeStyle;rounded=0;orthogonalLoop=1;jettySize=auto;html=1;endArrow=none;endFill=0;strokeColor=#172C51;" parent="szYbMflZ5qyDHRdNNVK9-20" source="szYbMflZ5qyDHRdNNVK9-16" target="szYbMflZ5qyDHRdNNVK9-18" edge="1">
          <mxGeometry relative="1" as="geometry" />
        </mxCell>
        <mxCell id="szYbMflZ5qyDHRdNNVK9-16" value="&lt;font color=&quot;#172c51&quot;&gt;«Component»&lt;br&gt;&lt;b&gt;Generic Receiver&lt;/b&gt;&lt;/font&gt;" style="html=1;dropTarget=0;whiteSpace=wrap;fillColor=#5B9BD5;strokeColor=#172C51;" parent="szYbMflZ5qyDHRdNNVK9-20" vertex="1">
          <mxGeometry x="430.205615292712" width="174.97438470728792" height="95.51020408163264" as="geometry" />
        </mxCell>
        <mxCell id="szYbMflZ5qyDHRdNNVK9-17" value="" style="shape=module;jettyWidth=8;jettyHeight=4;fillColor=none;strokeColor=#172C51;" parent="szYbMflZ5qyDHRdNNVK9-16" vertex="1">
          <mxGeometry x="1" width="20" height="20" relative="1" as="geometry">
            <mxPoint x="-27" y="7" as="offset" />
          </mxGeometry>
        </mxCell>
        <mxCell id="szYbMflZ5qyDHRdNNVK9-18" value="&lt;font color=&quot;#172c51&quot;&gt;«Component»&lt;br&gt;&lt;b&gt;Generic Translator&lt;/b&gt;&lt;/font&gt;" style="html=1;dropTarget=0;whiteSpace=wrap;fillColor=#5B9BD5;strokeColor=#172C51;" parent="szYbMflZ5qyDHRdNNVK9-20" vertex="1">
          <mxGeometry x="430.205615292712" y="164.48979591836732" width="174.97438470728792" height="95.51020408163264" as="geometry" />
        </mxCell>
        <mxCell id="szYbMflZ5qyDHRdNNVK9-19" value="" style="shape=module;jettyWidth=8;jettyHeight=4;fillColor=none;strokeColor=#172C51;" parent="szYbMflZ5qyDHRdNNVK9-18" vertex="1">
          <mxGeometry x="1" width="20" height="20" relative="1" as="geometry">
            <mxPoint x="-27" y="7" as="offset" />
          </mxGeometry>
        </mxCell>
        <mxCell id="szYbMflZ5qyDHRdNNVK9-21" value="&lt;font color=&quot;#172c51&quot;&gt;«Component»&lt;br&gt;&lt;b&gt;Accumulator&lt;/b&gt;&lt;/font&gt;" style="html=1;dropTarget=0;whiteSpace=wrap;fillColor=#5B9BD5;strokeColor=#172C51;" parent="x8041O_ZoknDPP2LVo7z-1" vertex="1">
          <mxGeometry x="302" y="589.9997959183673" width="174.97438470728792" height="95.51020408163264" as="geometry" />
        </mxCell>
        <mxCell id="szYbMflZ5qyDHRdNNVK9-22" value="" style="shape=module;jettyWidth=8;jettyHeight=4;fillColor=none;strokeColor=#172C51;" parent="szYbMflZ5qyDHRdNNVK9-21" vertex="1">
          <mxGeometry x="1" width="20" height="20" relative="1" as="geometry">
            <mxPoint x="-27" y="7" as="offset" />
          </mxGeometry>
        </mxCell>
        <mxCell id="Rau_UvpD_EVTxWh8V0y5-1" value="&lt;font&gt;«Component»&lt;br&gt;&lt;b&gt;Decision System&lt;/b&gt;&lt;/font&gt;" style="text;html=1;align=center;verticalAlign=middle;whiteSpace=wrap;rounded=0;fontColor=#172C51;" parent="x8041O_ZoknDPP2LVo7z-1" vertex="1">
          <mxGeometry x="422.1683333333334" y="1" width="161.33333333333331" height="44.99999999999999" as="geometry" />
        </mxCell>
        <mxCell id="Rau_UvpD_EVTxWh8V0y5-2" value="" style="rounded=0;whiteSpace=wrap;html=1;strokeColor=#172C51;" parent="x8041O_ZoknDPP2LVo7z-1" vertex="1">
          <mxGeometry x="188" y="215" width="14" height="10" as="geometry" />
        </mxCell>
        <mxCell id="Rau_UvpD_EVTxWh8V0y5-3" value="" style="rounded=0;whiteSpace=wrap;html=1;strokeColor=#172C51;" parent="x8041O_ZoknDPP2LVo7z-1" vertex="1">
          <mxGeometry x="409.16999999999996" y="215" width="14" height="10" as="geometry" />
        </mxCell>
        <mxCell id="Rau_UvpD_EVTxWh8V0y5-4" value="" style="rounded=0;whiteSpace=wrap;html=1;strokeColor=#172C51;" parent="x8041O_ZoknDPP2LVo7z-1" vertex="1">
          <mxGeometry x="624.34" y="215" width="14" height="10" as="geometry" />
        </mxCell>
        <mxCell id="Rau_UvpD_EVTxWh8V0y5-18" style="edgeStyle=orthogonalEdgeStyle;rounded=0;orthogonalLoop=1;jettySize=auto;html=1;exitX=1;exitY=0.5;exitDx=0;exitDy=0;exitPerimeter=0;entryX=0.5;entryY=0;entryDx=0;entryDy=0;endArrow=none;endFill=0;strokeColor=#172C51;" parent="x8041O_ZoknDPP2LVo7z-1" source="Rau_UvpD_EVTxWh8V0y5-7" target="Rau_UvpD_EVTxWh8V0y5-4" edge="1">
          <mxGeometry relative="1" as="geometry" />
        </mxCell>
        <mxCell id="Rau_UvpD_EVTxWh8V0y5-7" value="" style="shape=requiredInterface;html=1;verticalLabelPosition=bottom;sketch=0;rotation=90;fontColor=#172C51;strokeColor=#172C51;" parent="x8041O_ZoknDPP2LVo7z-1" vertex="1">
          <mxGeometry x="626.34" y="-60" width="10" height="20" as="geometry" />
        </mxCell>
        <mxCell id="Rau_UvpD_EVTxWh8V0y5-8" value="" style="endArrow=none;html=1;rounded=0;exitX=0.5;exitY=0;exitDx=0;exitDy=0;strokeColor=#172C51;" parent="x8041O_ZoknDPP2LVo7z-1" source="Rau_UvpD_EVTxWh8V0y5-2" edge="1">
          <mxGeometry width="50" height="50" relative="1" as="geometry">
            <mxPoint x="210.16999999999996" y="45" as="sourcePoint" />
            <mxPoint x="195.16999999999996" y="-45" as="targetPoint" />
          </mxGeometry>
        </mxCell>
        <mxCell id="Rau_UvpD_EVTxWh8V0y5-10" value="" style="rounded=0;whiteSpace=wrap;html=1;strokeColor=#172C51;fontColor=#172C51;" parent="x8041O_ZoknDPP2LVo7z-1" vertex="1">
          <mxGeometry x="188" y="-4" width="14" height="10" as="geometry" />
        </mxCell>
        <mxCell id="Rau_UvpD_EVTxWh8V0y5-12" value="" style="shape=requiredInterface;html=1;verticalLabelPosition=bottom;sketch=0;rotation=90;strokeColor=#172C51;fontColor=#172C51;" parent="x8041O_ZoknDPP2LVo7z-1" vertex="1">
          <mxGeometry x="190" y="-60" width="10" height="20" as="geometry" />
        </mxCell>
        <mxCell id="Rau_UvpD_EVTxWh8V0y5-13" value="" style="shape=requiredInterface;html=1;verticalLabelPosition=bottom;sketch=0;rotation=90;strokeColor=#172C51;fontColor=#172C51;" parent="x8041O_ZoknDPP2LVo7z-1" vertex="1">
          <mxGeometry x="411.16999999999996" y="-60" width="10" height="20" as="geometry" />
        </mxCell>
        <mxCell id="Rau_UvpD_EVTxWh8V0y5-14" value="CleanWatts" style="text;html=1;align=center;verticalAlign=middle;whiteSpace=wrap;rounded=0;fontColor=#172C51;" parent="x8041O_ZoknDPP2LVo7z-1" vertex="1">
          <mxGeometry x="127" y="-54" width="60" height="30" as="geometry" />
        </mxCell>
        <mxCell id="Rau_UvpD_EVTxWh8V0y5-15" value="I-Charging" style="text;html=1;align=center;verticalAlign=middle;whiteSpace=wrap;rounded=0;fontColor=#172C51;" parent="x8041O_ZoknDPP2LVo7z-1" vertex="1">
          <mxGeometry x="424.7199999999999" y="-54" width="60" height="30" as="geometry" />
        </mxCell>
        <mxCell id="Rau_UvpD_EVTxWh8V0y5-17" style="edgeStyle=orthogonalEdgeStyle;rounded=0;orthogonalLoop=1;jettySize=auto;html=1;exitX=1;exitY=0.5;exitDx=0;exitDy=0;exitPerimeter=0;entryX=0.5;entryY=0;entryDx=0;entryDy=0;endArrow=none;endFill=0;strokeColor=#172C51;" parent="x8041O_ZoknDPP2LVo7z-1" source="Rau_UvpD_EVTxWh8V0y5-13" target="Rau_UvpD_EVTxWh8V0y5-3" edge="1">
          <mxGeometry relative="1" as="geometry">
            <Array as="points" />
          </mxGeometry>
        </mxCell>
        <mxCell id="Rau_UvpD_EVTxWh8V0y5-11" value="" style="rounded=0;whiteSpace=wrap;html=1;strokeColor=#172C51;fontColor=#172C51;" parent="x8041O_ZoknDPP2LVo7z-1" vertex="1">
          <mxGeometry x="409.16999999999996" y="-4" width="14" height="10" as="geometry" />
        </mxCell>
        <mxCell id="Rau_UvpD_EVTxWh8V0y5-6" value="" style="rounded=0;whiteSpace=wrap;html=1;strokeColor=#172C51;fontColor=#172C51;" parent="x8041O_ZoknDPP2LVo7z-1" vertex="1">
          <mxGeometry x="624.34" y="-4" width="14" height="10" as="geometry" />
        </mxCell>
        <mxCell id="Rau_UvpD_EVTxWh8V0y5-56" style="rounded=0;orthogonalLoop=1;jettySize=auto;html=1;exitX=0.5;exitY=1;exitDx=0;exitDy=0;entryX=0.5;entryY=0;entryDx=0;entryDy=0;endArrow=none;endFill=0;strokeColor=#172C51;" parent="x8041O_ZoknDPP2LVo7z-1" source="szYbMflZ5qyDHRdNNVK9-7" target="szYbMflZ5qyDHRdNNVK9-21" edge="1">
          <mxGeometry relative="1" as="geometry" />
        </mxCell>
        <mxCell id="Rau_UvpD_EVTxWh8V0y5-58" style="edgeStyle=orthogonalEdgeStyle;rounded=0;orthogonalLoop=1;jettySize=auto;html=1;exitX=0.75;exitY=1;exitDx=0;exitDy=0;entryX=0.75;entryY=0;entryDx=0;entryDy=0;endArrow=none;endFill=0;" parent="x8041O_ZoknDPP2LVo7z-1" source="szYbMflZ5qyDHRdNNVK9-5" target="szYbMflZ5qyDHRdNNVK9-21" edge="1">
          <mxGeometry relative="1" as="geometry">
            <Array as="points">
              <mxPoint x="429" y="535" />
              <mxPoint x="429" y="590" />
            </Array>
          </mxGeometry>
        </mxCell>
        <mxCell id="Rau_UvpD_EVTxWh8V0y5-59" style="rounded=0;orthogonalLoop=1;jettySize=auto;html=1;exitX=0.25;exitY=1;exitDx=0;exitDy=0;entryX=0.869;entryY=0.002;entryDx=0;entryDy=0;entryPerimeter=0;endArrow=none;endFill=0;" parent="x8041O_ZoknDPP2LVo7z-1" source="szYbMflZ5qyDHRdNNVK9-18" target="szYbMflZ5qyDHRdNNVK9-21" edge="1">
          <mxGeometry relative="1" as="geometry" />
        </mxCell>
        <mxCell id="XC_1Ajr6T6j3tB9uWdx8-5" style="edgeStyle=orthogonalEdgeStyle;rounded=0;orthogonalLoop=1;jettySize=auto;html=1;exitX=1;exitY=0.5;exitDx=0;exitDy=0;entryX=0;entryY=0.5;entryDx=0;entryDy=0;strokeColor=#172C51;endArrow=none;endFill=0;" parent="x8041O_ZoknDPP2LVo7z-1" source="OdWRmL5NKsq-Oeh8xc8I-40" target="XC_1Ajr6T6j3tB9uWdx8-1" edge="1">
          <mxGeometry relative="1" as="geometry" />
        </mxCell>
        <mxCell id="OdWRmL5NKsq-Oeh8xc8I-40" value="&lt;font color=&quot;#172c51&quot;&gt;«Component»&lt;br&gt;&lt;b&gt;Training Receiver&lt;/b&gt;&lt;/font&gt;" style="html=1;dropTarget=0;whiteSpace=wrap;fillColor=#5B9BD5;strokeColor=#172C51;" parent="x8041O_ZoknDPP2LVo7z-1" vertex="1">
          <mxGeometry x="760" y="494.48979591836735" width="174.97438470728792" height="95.51020408163264" as="geometry" />
        </mxCell>
        <mxCell id="OdWRmL5NKsq-Oeh8xc8I-41" value="" style="shape=module;jettyWidth=8;jettyHeight=4;fillColor=none;strokeColor=#172C51;" parent="OdWRmL5NKsq-Oeh8xc8I-40" vertex="1">
          <mxGeometry x="1" width="20" height="20" relative="1" as="geometry">
            <mxPoint x="-27" y="7" as="offset" />
          </mxGeometry>
        </mxCell>
        <mxCell id="XC_1Ajr6T6j3tB9uWdx8-6" style="edgeStyle=orthogonalEdgeStyle;rounded=0;orthogonalLoop=1;jettySize=auto;html=1;exitX=1;exitY=0.5;exitDx=0;exitDy=0;entryX=0;entryY=0.5;entryDx=0;entryDy=0;strokeColor=#172C51;endArrow=none;endFill=0;" parent="x8041O_ZoknDPP2LVo7z-1" source="OdWRmL5NKsq-Oeh8xc8I-42" target="XC_1Ajr6T6j3tB9uWdx8-3" edge="1">
          <mxGeometry relative="1" as="geometry" />
        </mxCell>
        <mxCell id="OdWRmL5NKsq-Oeh8xc8I-42" value="&lt;font color=&quot;#172c51&quot;&gt;«Component»&lt;br&gt;&lt;/font&gt;&lt;font color=&quot;#172c51&quot;&gt;&lt;b&gt;Generic Residential&amp;nbsp;&lt;/b&gt;&lt;/font&gt;&lt;font color=&quot;#172c51&quot;&gt;&lt;br&gt;&lt;/font&gt;&lt;div&gt;&lt;font color=&quot;#172c51&quot;&gt;&lt;b&gt;Decision Receiver&lt;/b&gt;&lt;/font&gt;&lt;/div&gt;" style="html=1;dropTarget=0;whiteSpace=wrap;fillColor=#5B9BD5;strokeColor=#172C51;" parent="x8041O_ZoknDPP2LVo7z-1" vertex="1">
          <mxGeometry x="760" y="619.9997959183673" width="174.97438470728792" height="95.51020408163264" as="geometry" />
        </mxCell>
        <mxCell id="OdWRmL5NKsq-Oeh8xc8I-43" value="" style="shape=module;jettyWidth=8;jettyHeight=4;fillColor=none;strokeColor=#172C51;" parent="OdWRmL5NKsq-Oeh8xc8I-42" vertex="1">
          <mxGeometry x="1" width="20" height="20" relative="1" as="geometry">
            <mxPoint x="-27" y="7" as="offset" />
          </mxGeometry>
        </mxCell>
        <mxCell id="GjkxAg49Bc-sq1MFGWxU-10" value="" style="group;rotation=-90;" parent="x8041O_ZoknDPP2LVo7z-1" vertex="1" connectable="0">
          <mxGeometry x="404.1700000000001" y="599" width="227.17000000000002" height="92" as="geometry" />
        </mxCell>
        <mxCell id="GjkxAg49Bc-sq1MFGWxU-7" value="" style="rounded=0;whiteSpace=wrap;html=1;strokeColor=#172C51;rotation=-90;" parent="GjkxAg49Bc-sq1MFGWxU-10" vertex="1">
          <mxGeometry x="66.55" y="33.75" width="14" height="10" as="geometry" />
        </mxCell>
        <mxCell id="GjkxAg49Bc-sq1MFGWxU-3" value="" style="rounded=0;whiteSpace=wrap;html=1;strokeColor=#172C51;rotation=-90;" parent="x8041O_ZoknDPP2LVo7z-1" vertex="1">
          <mxGeometry x="752.0000000000001" y="537.24" width="14" height="10" as="geometry" />
        </mxCell>
        <mxCell id="GjkxAg49Bc-sq1MFGWxU-1" value="" style="rounded=0;whiteSpace=wrap;html=1;strokeColor=#172C51;rotation=-90;" parent="x8041O_ZoknDPP2LVo7z-1" vertex="1">
          <mxGeometry x="752.0000000000001" y="662.75" width="14" height="10" as="geometry" />
        </mxCell>
        <mxCell id="GjkxAg49Bc-sq1MFGWxU-2" value="" style="ellipse;whiteSpace=wrap;html=1;aspect=fixed;strokeColor=#172C51;rotation=-90;" parent="x8041O_ZoknDPP2LVo7z-1" vertex="1">
          <mxGeometry x="604.3400000000001" y="627" width="20" height="20" as="geometry" />
        </mxCell>
        <mxCell id="GjkxAg49Bc-sq1MFGWxU-6" style="edgeStyle=orthogonalEdgeStyle;rounded=0;orthogonalLoop=1;jettySize=auto;html=1;entryX=0.5;entryY=0;entryDx=0;entryDy=0;endArrow=none;endFill=0;strokeColor=#172C51;" parent="x8041O_ZoknDPP2LVo7z-1" source="GjkxAg49Bc-sq1MFGWxU-7" target="GjkxAg49Bc-sq1MFGWxU-2" edge="1">
          <mxGeometry relative="1" as="geometry" />
        </mxCell>
        <mxCell id="ArjLXP_HysjWh4OCU3rb-1" value="" style="shape=requiredInterface;html=1;verticalLabelPosition=bottom;sketch=0;rotation=-130;direction=south;strokeColor=#172C51;" parent="x8041O_ZoknDPP2LVo7z-1" vertex="1">
          <mxGeometry x="605.8000000000001" y="627" width="24.54" height="15" as="geometry" />
        </mxCell>
        <mxCell id="ArjLXP_HysjWh4OCU3rb-3" style="rounded=0;orthogonalLoop=1;jettySize=auto;html=1;entryX=0.5;entryY=0;entryDx=0;entryDy=0;endArrow=none;endFill=0;strokeColor=#172C51;" parent="x8041O_ZoknDPP2LVo7z-1" source="ArjLXP_HysjWh4OCU3rb-2" target="GjkxAg49Bc-sq1MFGWxU-1" edge="1">
          <mxGeometry relative="1" as="geometry" />
        </mxCell>
        <mxCell id="ArjLXP_HysjWh4OCU3rb-2" value="" style="shape=requiredInterface;html=1;verticalLabelPosition=bottom;sketch=0;rotation=-75;direction=south;strokeColor=#172C51;" parent="x8041O_ZoknDPP2LVo7z-1" vertex="1">
          <mxGeometry x="606.8000000000001" y="631" width="24.54" height="15" as="geometry" />
        </mxCell>
        <mxCell id="ArjLXP_HysjWh4OCU3rb-4" style="rounded=0;orthogonalLoop=1;jettySize=auto;html=1;entryX=0.665;entryY=0.136;entryDx=0;entryDy=0;entryPerimeter=0;endArrow=none;endFill=0;strokeColor=#172C51;" parent="x8041O_ZoknDPP2LVo7z-1" source="GjkxAg49Bc-sq1MFGWxU-3" target="ArjLXP_HysjWh4OCU3rb-2" edge="1">
          <mxGeometry relative="1" as="geometry" />
        </mxCell>
        <mxCell id="XC_1Ajr6T6j3tB9uWdx8-1" value="&lt;font color=&quot;#172c51&quot;&gt;«Component»&lt;br&gt;&lt;b&gt;Algorithm&lt;/b&gt;&lt;br&gt;&lt;/font&gt;" style="html=1;dropTarget=0;whiteSpace=wrap;fillColor=#5B9BD5;strokeColor=#172C51;" parent="x8041O_ZoknDPP2LVo7z-1" vertex="1">
          <mxGeometry x="1030" y="494.48979591836735" width="174.97438470728792" height="95.51020408163264" as="geometry" />
        </mxCell>
        <mxCell id="XC_1Ajr6T6j3tB9uWdx8-2" value="" style="shape=module;jettyWidth=8;jettyHeight=4;fillColor=none;strokeColor=#172C51;" parent="XC_1Ajr6T6j3tB9uWdx8-1" vertex="1">
          <mxGeometry x="1" width="20" height="20" relative="1" as="geometry">
            <mxPoint x="-27" y="7" as="offset" />
          </mxGeometry>
        </mxCell>
        <mxCell id="Y-dfaOcKQbzDYfe2iEBt-3" style="edgeStyle=orthogonalEdgeStyle;rounded=0;orthogonalLoop=1;jettySize=auto;html=1;exitX=1;exitY=0.5;exitDx=0;exitDy=0;entryX=0;entryY=0.5;entryDx=0;entryDy=0;endArrow=none;endFill=0;" edge="1" parent="x8041O_ZoknDPP2LVo7z-1" source="XC_1Ajr6T6j3tB9uWdx8-3" target="Y-dfaOcKQbzDYfe2iEBt-1">
          <mxGeometry relative="1" as="geometry" />
        </mxCell>
        <mxCell id="XC_1Ajr6T6j3tB9uWdx8-3" value="&lt;font color=&quot;#172c51&quot;&gt;«Component»&lt;br&gt;&lt;b&gt;Algorithm&lt;/b&gt;&lt;br&gt;&lt;/font&gt;" style="html=1;dropTarget=0;whiteSpace=wrap;fillColor=#5B9BD5;strokeColor=#172C51;" parent="x8041O_ZoknDPP2LVo7z-1" vertex="1">
          <mxGeometry x="1030" y="619.9997959183673" width="174.97438470728792" height="95.51020408163264" as="geometry" />
        </mxCell>
        <mxCell id="XC_1Ajr6T6j3tB9uWdx8-4" value="" style="shape=module;jettyWidth=8;jettyHeight=4;fillColor=none;strokeColor=#172C51;" parent="XC_1Ajr6T6j3tB9uWdx8-3" vertex="1">
          <mxGeometry x="1" width="20" height="20" relative="1" as="geometry">
            <mxPoint x="-27" y="7" as="offset" />
          </mxGeometry>
        </mxCell>
        <mxCell id="Y-dfaOcKQbzDYfe2iEBt-1" value="&lt;font color=&quot;#172c51&quot;&gt;«Component»&lt;br&gt;&lt;b&gt;Device Translator&lt;/b&gt;&lt;br&gt;&lt;/font&gt;" style="html=1;dropTarget=0;whiteSpace=wrap;fillColor=#5B9BD5;strokeColor=#172C51;" vertex="1" parent="x8041O_ZoknDPP2LVo7z-1">
          <mxGeometry x="1280" y="619.9997959183673" width="174.97438470728792" height="95.51020408163264" as="geometry" />
        </mxCell>
        <mxCell id="Y-dfaOcKQbzDYfe2iEBt-2" value="" style="shape=module;jettyWidth=8;jettyHeight=4;fillColor=none;strokeColor=#172C51;" vertex="1" parent="Y-dfaOcKQbzDYfe2iEBt-1">
          <mxGeometry x="1" width="20" height="20" relative="1" as="geometry">
            <mxPoint x="-27" y="7" as="offset" />
          </mxGeometry>
        </mxCell>
        <mxCell id="Y-dfaOcKQbzDYfe2iEBt-11" value="Device" style="text;html=1;align=center;verticalAlign=middle;whiteSpace=wrap;rounded=0;fontColor=#172C51;" vertex="1" parent="x8041O_ZoknDPP2LVo7z-1">
          <mxGeometry x="1510" y="676.51" width="60" height="30" as="geometry" />
        </mxCell>
        <mxCell id="Rau_UvpD_EVTxWh8V0y5-55" value="Generic" style="text;html=1;align=center;verticalAlign=middle;whiteSpace=wrap;rounded=0;fontColor=#172C51;" parent="1" vertex="1">
          <mxGeometry x="981.9999999999999" y="120" width="60" height="30" as="geometry" />
        </mxCell>
        <mxCell id="Y-dfaOcKQbzDYfe2iEBt-4" value="" style="group;rotation=-90;" vertex="1" connectable="0" parent="1">
          <mxGeometry x="1730" y="800" width="227.17000000000002" height="92" as="geometry" />
        </mxCell>
        <mxCell id="Y-dfaOcKQbzDYfe2iEBt-5" value="" style="rounded=0;whiteSpace=wrap;html=1;strokeColor=#172C51;rotation=-90;" vertex="1" parent="Y-dfaOcKQbzDYfe2iEBt-4">
          <mxGeometry x="66.55" y="34.75" width="14" height="10" as="geometry" />
        </mxCell>
        <mxCell id="Y-dfaOcKQbzDYfe2iEBt-6" value="" style="ellipse;whiteSpace=wrap;html=1;aspect=fixed;strokeColor=#172C51;rotation=-90;" vertex="1" parent="1">
          <mxGeometry x="1890.17" y="828" width="20" height="20" as="geometry" />
        </mxCell>
        <mxCell id="Y-dfaOcKQbzDYfe2iEBt-7" style="edgeStyle=orthogonalEdgeStyle;rounded=0;orthogonalLoop=1;jettySize=auto;html=1;endArrow=none;endFill=0;strokeColor=#172C51;entryX=0.5;entryY=0;entryDx=0;entryDy=0;" edge="1" parent="1" source="Y-dfaOcKQbzDYfe2iEBt-9" target="Y-dfaOcKQbzDYfe2iEBt-6">
          <mxGeometry relative="1" as="geometry">
            <mxPoint x="1808.55" y="838.7442047223234" as="sourcePoint" />
            <mxPoint x="1890" y="838" as="targetPoint" />
            <Array as="points">
              <mxPoint x="1809" y="840" />
              <mxPoint x="1890" y="840" />
            </Array>
          </mxGeometry>
        </mxCell>
        <mxCell id="Y-dfaOcKQbzDYfe2iEBt-9" value="" style="rounded=0;whiteSpace=wrap;html=1;strokeColor=#172C51;rotation=-90;" vertex="1" parent="1">
          <mxGeometry x="1843" y="834.75" width="14" height="10" as="geometry" />
        </mxCell>
      </root>
    </mxGraphModel>
  </diagram>
</mxfile>
